<svg id="Layer_1" data-name="Layer 1" xmlns="http://www.w3.org/2000/svg" viewBox="0 0 429.03 494.04"><defs><style>.cls-1{fill:#fff;}</style></defs><title>logo</title><g id="kip"><path d="M461.36,280.43c-1.3-17.56-2.93-35.21-6.2-52.48-5.65-29.86-23.24-51.8-48.86-67.52-2.89-1.77-3.68-3.38-2.87-6.75A103.77,103.77,0,0,1,422.54,114a5.54,5.54,0,0,1,1.28-1c-.29,4.48-.8,8.91-.78,13.33,0,3.27,1.58,5.86,5.29,6.13s5.67-1.67,6.64-5.3c1.88-7-.6-12.94-4.48-19.22l29.8-4.61a4,4,0,0,0-2.55-2c-7.89-2-15.83-3.88-23.68-6.05a7.29,7.29,0,0,1-4-3.05,69.12,69.12,0,0,1-3.56-7.77c3.55-3.42,8.79-6.11,9.73-9.88,1.95-7.76,1.79-16.09,2-24.19,0-1.53-1.86-4.1-3.25-4.4s-3.78,1.33-4.72,2.77c-2.17,3.32-3.55,7.14-5.59,10.56-1.21,2-3,3.71-4.59,5.54l-1.44-.72c-.39-3.1-.85-6.19-1.14-9.29-.7-7.41-3.2-13.93-9.08-18.81-2.8-2.31-5.44-1.61-6.46,1.83a16.77,16.77,0,0,0-.56,5.44c.27,6,.78,12,1.05,18,.1,2.14-.2,4.3-.31,6.45l-1.48.3-3.28-4.72c-2.76-4-5.32-8.07-8.35-11.8-2.89-3.56-6.85-4.14-10.79-1.83s-6.1,5.47-4.82,10.39c1.82,7,5.08,13,11.13,17.22,2.44,1.71,4.81,3.53,7,5.13-11.18,9.42-22.25,18.71-33.29,28-28.63,24.2-56.85,48.91-86,72.46-21.09,17-44.48,30.57-71.31,36.81-7.8,1.82-15.87,2.51-24,3.74a31.13,31.13,0,0,1-.29-3.22c1.45-25.14-11.62-44.57-26.83-62-7.46-8.56-19.2-13.46-29.18-19.72-2.13-1.33-5.48-2.55-7.51-1.79a24.05,24.05,0,0,0-9.73,6.75c-1,1.23.47,5.18,1.61,7.49,5.31,10.71,11.09,21.2,16.27,32,1.43,3,1.4,6.63,2,10l-1.68,1.42c-5-3.38-10.24-6.35-14.78-10.21-7.7-6.56-14.54-14.15-22.44-20.44-9.65-7.69-21.51-7-32.94-6.16-4.77.34-6.53,4.18-5,8.87,3.61,11.15,10.78,19.79,19.84,26.87,6.82,5.32,14.08,10.08,21,15.33,4.28,3.26,6.06,7.7,4.64,13.59a7.65,7.65,0,0,1-1.44-.6c-1.8-1.48-3.69-2.88-5.35-4.5-10-9.76-22.18-13.74-35.84-13.94-5.82-.08-10.93,1.6-13.93,7.05C32.27,215.8,32.1,221.38,36,227a28.12,28.12,0,0,0,14.83,11.06c16.48,5.7,32.73,12.07,49.12,18,5.44,2,10.93,4.09,16.59,5.16,3.93.75,5.37,2.5,6.48,6,7.74,24.58,15.42,49.19,23.69,73.59s24.8,41.73,48.39,52.31A165,165,0,0,1,212.42,402a23,23,0,0,1,11.64,19.29c.3,5,.47,10,.84,15,.48,6.31,2.32,12,7.17,16.52a6.8,6.8,0,0,1,1.7,4.64c-.13,7-.73,13.93-.84,20.89-.06,3.88.51,7.77.82,12L223.13,488l-.61,1.48c3,1.28,6.06,2.38,8.9,3.91a10.3,10.3,0,0,1,4.29,3.82c2.94,5.76,5.37,11.77,8.24,17.57.74,1.49,2.36,2.54,3.57,3.79l.86-.77-6.69-13.5L266.33,517l1.15-2-27.89-16.79c12.16,1.61,23.4,6.88,35.85,4.95a20,20,0,0,0-7.07-2.65c-9-2.06-18.09-4-27.06-6.28-1.46-.37-3.54-2.21-3.62-3.49-.8-11.78-1.22-23.58-1.75-35.31,10.77-.82,12.46-2.38,13.91-11.63.18-1.15.5-2.29.61-3.44.61-6.8,4.44-11.72,10.74-12.93q28.87-5.53,58-9.64c6.67-.95,10.44,3,11.46,9.84.29,2,.15,4,.35,6,.6,6,3.45,10.6,9.34,12.32,3.92,1.14,4.68,3.4,4.71,6.94,0,5.74.6,11.47.7,17.22.13,7.16,0,14.33,0,21.83-15.59-7.5-24.83-9.52-27.89-6,1.33.51,2.54,1,3.76,1.43,6.7,2.42,13.47,4.68,20.07,7.36,1.72.7,3.76,2.47,4.22,4.15,2,7.35,3.38,14.86,5.15,22.27.62,2.59,1.7,5.06,2.57,7.59l1.73-.4c.34-9-4.18-17.39-4.67-25.86,7.93,5.58,15.66,11.09,23.49,16.44.74.51,2.13.07,4.63.07l-26-20.79a8.65,8.65,0,0,1,5.95-.14c6.41,2.61,12.7,5.51,19.11,8.12,1.38.56,3.07.37,4.62.52-1.06-1.4-1.83-3.53-3.22-4.08-8.63-3.37-17.34-6.59-26.17-9.39-3-1-4.41-2.07-4.47-5.34-.27-13.45-.75-26.89-1.17-40.68,10.72-1.81,16.53-9.52,21.15-18.55,1.06-2.08,2.2-4.12,3.1-6.26,5.49-13,14.53-23,26-30.95,8.5-5.87,17.2-11.43,25.66-17.34,6-4.19,12-8.44,17.55-13.2,12.08-10.38,20.13-23.27,20.75-39.53A366.33,366.33,0,0,0,461.36,280.43Zm-64-165.06c-3.72-.33-8.6-6.76-8.46-11.13s4.57-8.36,9.16-8.07a9.42,9.42,0,0,1,9,9.94C406.78,111.56,402.31,115.81,397.36,115.36Z" transform="translate(-33.06 -34.65)"/><path d="M393,103.35a4.19,4.19,0,0,0,2.42,2.77c.65.23,1.85-1.13,3.57-2.3-1.72-1.4-2.65-2.7-3.74-2.85C394.57,100.88,392.9,102.63,393,103.35Z" transform="translate(-33.06 -34.65)"/></g><g id="Layer_2" data-name="Layer 2"><path class="cls-1" d="M258.86,222.32h3.46v36.8l19.51-21.31h4.32L273.77,251l14,24.63h-3.89l-12.6-22-9,9.65v12.31h-3.46Z" transform="translate(-33.06 -34.65)"/><path class="cls-1" d="M296.38,223.76h3.75v4.39h-3.75Zm.14,14H300v37.8h-3.46Z" transform="translate(-33.06 -34.65)"/><path class="cls-1" d="M312.5,237.81H316v5.54c3.24-3.38,7.2-6.34,12.89-6.34,8.71,0,15.84,6.41,15.84,19.66s-7.2,19.59-16,19.59c-5.18,0-9.15-2.66-12.75-6.19V290H312.5Zm28.73,18.94c0-11.45-5.83-16.71-12.46-16.71-5.11,0-8.57,2.45-12.82,6.77v19.66c4.25,4.32,8.06,6.77,13,6.77C335.55,273.23,341.23,268.34,341.23,256.74Z" transform="translate(-33.06 -34.65)"/><path class="cls-1" d="M223.94,355.67l2.52-1.94c2.88,3.67,6.34,5.9,11.74,5.9,7.13,0,10.8-2.88,10.8-7.49s-2.74-6.55-11.23-8.57c-9.58-2.38-12.75-4.9-12.75-10.73,0-4.83,4.32-9.43,12.46-9.43A17.42,17.42,0,0,1,250.87,329l-2.3,2.38a14,14,0,0,0-11.16-4.9c-6.26,0-8.93,3.1-8.93,6.26,0,4,2.16,5.69,9.58,7.49,10.66,2.67,14.4,5.18,14.4,12,0,6.48-5.83,10.51-14.33,10.51C231.43,362.66,226.68,359.63,223.94,355.67Z" transform="translate(-33.06 -34.65)"/><path class="cls-1" d="M262.54,308.72H266v21.75c4.18-4,9.07-7.06,14.62-7.06,7.85,0,11.45,4.32,11.45,11.16V362H288.6V335c0-5.76-2.52-8.57-8.28-8.57-5.26,0-9.65,2.74-14.33,7.2V362h-3.46Z" transform="translate(-33.06 -34.65)"/><path class="cls-1" d="M301.63,343.14c0-12.17,7.27-19.73,16.63-19.73S334.9,331,334.9,343.14s-7.34,19.66-16.63,19.66S301.63,355.17,301.63,343.14Zm29.81-.07c0-8.79-4.61-16.63-13.18-16.63-8.14,0-13.18,7.2-13.18,16.63,0,8.86,4.54,16.71,13.18,16.71C326.4,359.78,331.44,352.65,331.44,343.07Z" transform="translate(-33.06 -34.65)"/><path class="cls-1" d="M344.83,324.2h3.46v5.54c3.24-3.38,7.2-6.34,12.89-6.34,8.71,0,15.84,6.41,15.84,19.66s-7.2,19.59-16,19.59c-5.18,0-9.15-2.67-12.75-6.19v19.95h-3.46Zm28.73,18.94c0-11.45-5.83-16.71-12.46-16.71-5.11,0-8.57,2.45-12.82,6.77v19.66c4.25,4.32,8.06,6.77,13,6.77C367.87,359.63,373.56,354.74,373.56,343.14Z" transform="translate(-33.06 -34.65)"/></g></svg>